<svg xmlns="http://www.w3.org/2000/svg" viewBox="0 0 100 12" width="100" height="12"><defs><filter id="f" x="-4%" y="-40%" width="108%" height="180%"><feTurbulence type="fractalNoise" baseFrequency="0.16 0.34" numOctaves="3" seed="6" result="n"/><feDisplacementMap in="SourceGraphic" in2="n" scale="2.4" xChannelSelector="R" yChannelSelector="G"/></filter></defs><g fill="#000" filter="url(#f)"><rect x="-4" y="0.82" width="2.09" height="10.37" rx="0.9" transform="skewX(-26)"/><rect x="2.11" y="0.33" width="2.09" height="11.33" rx="0.9" transform="skewX(-26)"/><rect x="8.4" y="1.71" width="1.87" height="8.59" rx="0.9" transform="skewX(-26)"/><rect x="14.73" y="0.78" width="2.22" height="10.45" rx="0.9" transform="skewX(-26)"/><rect x="19.88" y="1.04" width="1.7" height="9.91" rx="0.9" transform="skewX(-26)"/><rect x="25.64" y="0.89" width="1.51" height="10.22" rx="0.9" transform="skewX(-26)"/><rect x="30.95" y="1.33" width="2.23" height="9.34" rx="0.9" transform="skewX(-26)"/><rect x="37.02" y="1.51" width="2.14" height="8.98" rx="0.9" transform="skewX(-26)"/><rect x="42.21" y="0.83" width="1.6" height="10.35" rx="0.9" transform="skewX(-26)"/><rect x="47.22" y="0.45" width="1.67" height="11.11" rx="0.9" transform="skewX(-26)"/><rect x="52.52" y="0.28" width="2.2" height="11.45" rx="0.9" transform="skewX(-26)"/><rect x="57.92" y="0.31" width="1.93" height="11.38" rx="0.9" transform="skewX(-26)"/><rect x="63.87" y="1.45" width="2.25" height="9.11" rx="0.9" transform="skewX(-26)"/><rect x="69.84" y="0.3" width="2.21" height="11.4" rx="0.9" transform="skewX(-26)"/><rect x="75.26" y="1.21" width="1.63" height="9.58" rx="0.9" transform="skewX(-26)"/><rect x="80.46" y="1.65" width="1.74" height="8.7" rx="0.9" transform="skewX(-26)"/><rect x="86.31" y="1.75" width="2.04" height="8.51" rx="0.9" transform="skewX(-26)"/><rect x="91.78" y="1.29" width="2.15" height="9.43" rx="0.9" transform="skewX(-26)"/><rect x="97.45" y="1.28" width="1.88" height="9.45" rx="0.9" transform="skewX(-26)"/><rect x="103.44" y="1.67" width="2.28" height="8.67" rx="0.9" transform="skewX(-26)"/></g></svg>