<?xml version="1.0" encoding="utf-8" ?><svg xmlns="http://www.w3.org/2000/svg" xmlns:xlink="http://www.w3.org/1999/xlink" width="1024" height="1024" viewBox="0 0 1024 1024"><path fill="#244B22" d="M0 0L1024 0L1024 1024L0 1024L0 0Z"/><path fill="#FC4C0B" d="M526.029 146.706L526.883 146.293C534.81 142.419 541.927 137.541 547.939 133.844C551.528 131.637 576.406 123.077 580.523 122.22L581.477 122.012C545.646 168.448 545.319 223.759 589.536 264.341C598.821 272.863 607.256 287.513 618.063 295.731C639.267 317.339 650.942 340.227 653.104 370.558C654.581 391.264 655.206 410.125 646.551 429.723L647.077 430.034C650.122 425.719 649.727 428.912 647.866 431.787L647.347 432.605C646.096 434.514 647.752 435.289 646.166 436.146C645.117 441.676 633.92 456.256 629.212 459.336C620.881 470.153 604.966 474.656 595.385 480.643C598.238 481.504 601.14 482.121 603.388 484.053L601.958 483.521C605.648 486.314 609.176 488.781 612.985 491.403C618.084 489.732 624.57 484.999 628.414 484.08C629.44 483.516 636.999 480.03 637.69 480.748C637.734 480.934 637.719 480.799 637.683 481.234L638.65 482.2C640.253 481.529 641.893 480.592 643.526 480.879C644.327 482.501 644.012 482.595 645.285 483.12L647.28 482.7C647.953 483.549 647.881 483.12 647.827 483.885L647.978 486.131C648.332 487.88 648.774 488.918 648.036 490.502C646.689 491.656 646.071 491.727 644.403 492.255L644.982 492.687C645.755 493.283 646.301 493.297 647.265 493.362C649.055 494.526 648.687 493.783 649.029 495.361C646.495 497.95 633.689 500.391 629.747 500.875L630.23 501.447C636.643 508.976 645.359 510.807 648.989 519.199C646.992 521.559 646.756 518.08 646.919 522.31C645.031 522.235 643.053 521.117 640.838 520.617C642.152 521.98 646.342 525.804 646.628 527.062L646.159 527.757L645.666 529.125C644.852 530.25 645.062 530.236 643.995 530.965C642.136 532.057 642.168 533.239 641.364 533.339C633.678 530.792 623.411 522.617 618.678 516.006C616.419 521.019 615.145 552.658 611.984 556.387L611.958 556.747C612.045 559.223 612.504 560.567 611.149 562.323C609.903 560.197 610.67 558.46 609.337 557.666L608.627 557.233C607.933 560.556 607.597 564.135 607.418 567.528C605.281 567.482 604.481 567.473 602.735 566.215C602.429 564.611 602.199 563.525 601.755 561.951C600.713 562.583 595.834 563.134 596.527 560.502C596.812 560.008 597.626 559.034 597.309 558.505C596.813 558.23 596.706 558.259 596.125 558.248C586.305 558.079 576.484 557.971 566.663 557.925L566.752 559.328C563.75 558.867 560.784 558.622 557.854 558.22C557.734 557.753 557.746 557.57 557.482 557.181C555.223 556.884 550.893 555.789 549.24 557.222L548.577 557.241L548.485 556.529C546.546 554.805 526.273 552.257 523.892 553.812C524.874 555.191 529.778 556.565 531.673 557.218C527.518 557.513 523.492 556.791 519.436 555.977L516.363 551.996C491.358 549.821 458.624 550.186 434.16 555.312C433.438 547.616 429.932 523.791 427.989 516.641C425.687 518.118 423.727 519.387 421.56 521.061C418.671 523.294 415.304 527.019 412.139 528.545L411.691 528.295C412.735 525.269 414.978 523.241 417.16 520.861C412.13 523.609 410.29 525.299 405.762 528.655C409.779 521.851 412.267 521.276 417.423 515.879C414.071 516.81 414.522 516.712 411.643 518.145C408.346 519.786 399.975 529.143 397.556 529.067C397.548 526.527 399.618 525.224 400.803 523.327L401.091 521.601C398.849 523.229 397.183 525.241 394.51 525.922C394.039 524.826 393.851 524.376 392.721 523.906L391.992 523.593C392.343 523.095 392.636 522.677 393.013 522.197C392.831 521.552 392.637 520.911 392.434 520.273C391.694 520.614 390.226 521.765 389.503 521.116C389.578 520.588 389.628 520.633 390.074 520.209C389.618 518.83 388.738 518.675 389.85 517.736C388.656 516.339 388.693 516.921 388.567 515.558C391.149 513.607 397.717 510.652 400.907 508.956C412.452 502.817 417.434 498.394 430.287 495.912C422.244 494.417 410.345 493.558 401.945 492.773L405.776 489.117C404.68 488.137 404.935 488.469 404.123 487.26C405.334 486.618 404.934 487.104 405.533 485.972C403.164 483.188 405.311 484.333 405.596 480.885C405.656 480.167 405.637 479.204 405.682 478.453C405.801 477.971 405.936 477.517 405.987 477.027L405.483 475.733L405.994 475.18C410.925 475.443 416.359 476.974 421.252 477.617C432.63 479.113 441.91 480.983 452.944 483.903L461.748 480.538C460.969 478.489 460.63 476.945 460.023 474.88C458.77 474.067 453.695 472.348 451.97 471.68C445.582 469.207 439.033 466.806 433.214 463.115C417.232 452.79 404.937 437.662 398.095 419.907C396.147 414.765 391.663 395.098 390.181 388.581C390.15 386.203 389.647 384.224 389.321 381.928C389.49 380.066 389.922 375.177 389.223 373.711C386.448 367.896 388.859 360.421 389.768 353.497L390.286 353.308C390.452 354.462 390.606 355.617 390.746 356.775C399.358 316.31 399.012 300.843 425.87 266.766C426.983 282.23 434.103 298.291 444.352 309.882C446.358 308.032 445.67 306.315 446.042 303.471C446.071 299.748 445.284 280.944 446.698 279.013C447.468 278.859 448.236 278.694 449.001 278.519L449.13 275.907L447.396 274.456C445.699 272.155 446.358 265.599 447.313 262.995C447.923 261.332 448.729 252.46 450.345 257.115L451.237 257.705C453.428 247.595 454.406 238.354 458.684 228.583C460.154 225.228 462.12 221.851 461.851 218.188C461.8 217.483 465.313 211.674 465.813 210.502C474.54 194.697 490.988 170.574 505.538 160.368C508.844 156.907 527.752 142.336 532.377 140.76L535.226 139.79C533.964 140.747 526.282 146.092 526.029 146.706Z"/><path fill="#BA9274" d="M482.468 451.919C487.933 454.509 492.378 459.437 497.397 461.93C511.432 468.903 530.896 475.172 546.309 477.956L546.89 477.628L546.547 476.787C546.432 476.665 545.992 476.319 546.003 476.064C546.732 475.434 547.512 477.006 549.014 474.967L548.862 474.292C549.774 473.739 553.928 474.39 555.51 474.491L555.168 474.044C551.584 469.449 548.811 469.979 546.852 467.401L546.935 466.837L547.414 466.735L546.76 467.25C551.44 465.773 570.618 477.521 576.94 479.264C571.755 474.91 564.771 472.525 560.245 468.587L560.201 467.694L561.067 467.321C565.119 469.044 568.542 471.546 572.687 473.369C579.856 476.522 587.812 478.654 595.385 480.643C598.238 481.504 601.14 482.121 603.388 484.053L601.958 483.521C605.648 486.314 609.176 488.781 612.985 491.403C618.084 489.732 624.57 484.999 628.414 484.08C629.44 483.516 636.999 480.03 637.69 480.748C637.734 480.934 637.719 480.799 637.683 481.234L638.65 482.2C640.253 481.529 641.893 480.592 643.526 480.879C644.327 482.501 644.012 482.595 645.285 483.12L647.28 482.7C647.953 483.549 647.881 483.12 647.827 483.885L647.978 486.131C648.332 487.88 648.774 488.918 648.036 490.502C646.689 491.656 646.071 491.727 644.403 492.255L644.982 492.687C645.755 493.283 646.301 493.297 647.265 493.362C649.055 494.526 648.687 493.783 649.029 495.361C646.495 497.95 633.689 500.391 629.747 500.875L630.23 501.447C636.643 508.976 645.359 510.807 648.989 519.199C646.992 521.559 646.756 518.08 646.919 522.31C645.031 522.235 643.053 521.117 640.838 520.617C642.152 521.98 646.342 525.804 646.628 527.062L646.159 527.757L645.666 529.125C644.852 530.25 645.062 530.236 643.995 530.965C642.136 532.057 642.168 533.239 641.364 533.339C633.678 530.792 623.411 522.617 618.678 516.006C616.419 521.019 615.145 552.658 611.984 556.387L611.958 556.747C612.045 559.223 612.504 560.567 611.149 562.323C609.903 560.197 610.67 558.46 609.337 557.666L608.627 557.233C607.933 560.556 607.597 564.135 607.418 567.528C605.281 567.482 604.481 567.473 602.735 566.215C602.429 564.611 602.199 563.525 601.755 561.951C600.713 562.583 595.834 563.134 596.527 560.502C596.812 560.008 597.626 559.034 597.309 558.505C596.813 558.23 596.706 558.259 596.125 558.248C586.305 558.079 576.484 557.971 566.663 557.925L566.752 559.328C563.75 558.867 560.784 558.622 557.854 558.22C557.734 557.753 557.746 557.57 557.482 557.181C555.223 556.884 550.893 555.789 549.24 557.222L548.577 557.241L548.485 556.529C546.546 554.805 526.273 552.257 523.892 553.812C524.874 555.191 529.778 556.565 531.673 557.218C527.518 557.513 523.492 556.791 519.436 555.977L516.363 551.996C491.358 549.821 458.624 550.186 434.16 555.312C433.438 547.616 429.932 523.791 427.989 516.641C425.687 518.118 423.727 519.387 421.56 521.061C418.671 523.294 415.304 527.019 412.139 528.545L411.691 528.295C412.735 525.269 414.978 523.241 417.16 520.861C412.13 523.609 410.29 525.299 405.762 528.655C409.779 521.851 412.267 521.276 417.423 515.879C414.071 516.81 414.522 516.712 411.643 518.145C408.346 519.786 399.975 529.143 397.556 529.067C397.548 526.527 399.618 525.224 400.803 523.327L401.091 521.601C398.849 523.229 397.183 525.241 394.51 525.922C394.039 524.826 393.851 524.376 392.721 523.906L391.992 523.593C392.343 523.095 392.636 522.677 393.013 522.197C392.831 521.552 392.637 520.911 392.434 520.273C391.694 520.614 390.226 521.765 389.503 521.116C389.578 520.588 389.628 520.633 390.074 520.209C389.618 518.83 388.738 518.675 389.85 517.736C388.656 516.339 388.693 516.921 388.567 515.558C391.149 513.607 397.717 510.652 400.907 508.956C412.452 502.817 417.434 498.394 430.287 495.912C422.244 494.417 410.345 493.558 401.945 492.773L405.776 489.117C404.68 488.137 404.935 488.469 404.123 487.26C405.334 486.618 404.934 487.104 405.533 485.972C403.164 483.188 405.311 484.333 405.596 480.885C405.656 480.167 405.637 479.204 405.682 478.453C405.801 477.971 405.936 477.517 405.987 477.027L405.483 475.733L405.994 475.18C410.925 475.443 416.359 476.974 421.252 477.617C432.63 479.113 441.91 480.983 452.944 483.903L461.748 480.538C463.728 479.83 465.86 479.268 467.763 478.58L469.592 477.915C479.448 475.528 485.467 473.972 495.522 472.982C492.201 472.319 484.058 471.256 482.333 468.305C482.827 466.936 483.404 466.81 484.673 466.006C488.601 467.709 490.369 468.382 494.483 469.509C492.051 467.647 488.741 465.599 486.126 463.888C485.424 462.63 485.598 463.301 485.689 461.785C486.866 460.954 486.205 461.168 487.804 461.433C489.191 460.945 489.241 460.908 490.503 460.121C487.606 457.318 485.153 454.914 482.468 451.919Z"/><path fill="#F1E8D8" d="M482.468 451.919C487.933 454.509 492.378 459.437 497.397 461.93C511.432 468.903 530.896 475.172 546.309 477.956L546.89 477.628L546.547 476.787C546.432 476.665 545.992 476.319 546.003 476.064C546.732 475.434 547.512 477.006 549.014 474.967L548.862 474.292C549.774 473.739 553.928 474.39 555.51 474.491L555.168 474.044C551.584 469.449 548.811 469.979 546.852 467.401L546.935 466.837L547.414 466.735L546.76 467.25C551.44 465.773 570.618 477.521 576.94 479.264C571.755 474.91 564.771 472.525 560.245 468.587L560.201 467.694L561.067 467.321C565.119 469.044 568.542 471.546 572.687 473.369C579.856 476.522 587.812 478.654 595.385 480.643C598.238 481.504 601.14 482.121 603.388 484.053L601.958 483.521C605.648 486.314 609.176 488.781 612.985 491.403C618.084 489.732 624.57 484.999 628.414 484.08C629.44 483.516 636.999 480.03 637.69 480.748C637.734 480.934 637.719 480.799 637.683 481.234L638.65 482.2C640.253 481.529 641.893 480.592 643.526 480.879C644.327 482.501 644.012 482.595 645.285 483.12L647.28 482.7C647.953 483.549 647.881 483.12 647.827 483.885L647.978 486.131C648.332 487.88 648.774 488.918 648.036 490.502C646.689 491.656 646.071 491.727 644.403 492.255L644.982 492.687C645.755 493.283 646.301 493.297 647.265 493.362C649.055 494.526 648.687 493.783 649.029 495.361C646.495 497.95 633.689 500.391 629.747 500.875L630.23 501.447C636.643 508.976 645.359 510.807 648.989 519.199C646.992 521.559 646.756 518.08 646.919 522.31C645.031 522.235 643.053 521.117 640.838 520.617C642.152 521.98 646.342 525.804 646.628 527.062L646.159 527.757L645.666 529.125C644.852 530.25 645.062 530.236 643.995 530.965C642.136 532.057 642.168 533.239 641.364 533.339C633.678 530.792 623.411 522.617 618.678 516.006C617.049 513.75 612.891 509.636 610.054 509.441C609.206 509.383 608.519 510.285 607.849 510.861C606.236 511.452 606.328 511.403 605.126 512.65L604.641 513.512L602.195 513.675L602.139 514.366C603.565 515.834 604.294 516.081 604.718 517.761L603.786 518.804C602.418 518.815 602.01 518.561 600.717 518.106L600.012 518.496C600.85 519.785 602.504 521.999 602.74 523.4C601.469 523.569 596.332 520.065 594.523 519.18C593.862 519.655 593.208 520.139 592.56 520.632C595.842 523.245 598.066 524.123 601.109 527.417C594.139 524.895 583.082 517.168 576.296 512.873C541.581 490.899 516.778 484.118 476.432 493.544C489.303 496.041 503.091 496.711 516.206 497.439C521.457 497.73 525.643 495.248 529.065 495.968L529.325 496.597C525.6 499.8 512.923 500.442 507.603 501.12C509.415 502.15 511.824 501.764 514.08 502.044L518.775 501.962C519.164 502.32 519.5 502.656 519.874 503.028C522.867 503.29 524.087 502.897 526.582 504.277C527.012 505.377 526.903 504.8 526.894 506.009C529.897 507.403 532.4 506.379 534.35 507.774C533.826 508.91 534.219 508.437 533.138 509.166L533.749 510.018L534.901 510.853L534.65 511.601C531.195 512.625 522.149 513.013 518.237 513.429C504.779 514.86 492.314 514.975 478.957 512.065C470.095 510.134 460.792 506.99 451.991 505.127C446.295 507.293 433.044 513.327 427.989 516.641C425.687 518.118 423.727 519.387 421.56 521.061C418.671 523.294 415.304 527.019 412.139 528.545L411.691 528.295C412.735 525.269 414.978 523.241 417.16 520.861C412.13 523.609 410.29 525.299 405.762 528.655C409.779 521.851 412.267 521.276 417.423 515.879C414.071 516.81 414.522 516.712 411.643 518.145C408.346 519.786 399.975 529.143 397.556 529.067C397.548 526.527 399.618 525.224 400.803 523.327L401.091 521.601C398.849 523.229 397.183 525.241 394.51 525.922C394.039 524.826 393.851 524.376 392.721 523.906L391.992 523.593C392.343 523.095 392.636 522.677 393.013 522.197C392.831 521.552 392.637 520.911 392.434 520.273C391.694 520.614 390.226 521.765 389.503 521.116C389.578 520.588 389.628 520.633 390.074 520.209C389.618 518.83 388.738 518.675 389.85 517.736C388.656 516.339 388.693 516.921 388.567 515.558C391.149 513.607 397.717 510.652 400.907 508.956C412.452 502.817 417.434 498.394 430.287 495.912C422.244 494.417 410.345 493.558 401.945 492.773L405.776 489.117C404.68 488.137 404.935 488.469 404.123 487.26C405.334 486.618 404.934 487.104 405.533 485.972C403.164 483.188 405.311 484.333 405.596 480.885C405.656 480.167 405.637 479.204 405.682 478.453C405.801 477.971 405.936 477.517 405.987 477.027L405.483 475.733L405.994 475.18C410.925 475.443 416.359 476.974 421.252 477.617C432.63 479.113 441.91 480.983 452.944 483.903L461.748 480.538C463.728 479.83 465.86 479.268 467.763 478.58L469.592 477.915C479.448 475.528 485.467 473.972 495.522 472.982C492.201 472.319 484.058 471.256 482.333 468.305C482.827 466.936 483.404 466.81 484.673 466.006C488.601 467.709 490.369 468.382 494.483 469.509C492.051 467.647 488.741 465.599 486.126 463.888C485.424 462.63 485.598 463.301 485.689 461.785C486.866 460.954 486.205 461.168 487.804 461.433C489.191 460.945 489.241 460.908 490.503 460.121C487.606 457.318 485.153 454.914 482.468 451.919Z"/><path fill="#D8D7CC" d="M395.375 515.082C398.705 514.202 401.124 514.158 400.589 518.175C399.551 519.06 399.46 519.121 398.772 520.279C400.078 519.88 403.193 519.461 401.091 521.601C398.849 523.229 397.183 525.241 394.51 525.922C394.039 524.826 393.851 524.376 392.721 523.906L391.992 523.593C392.343 523.095 392.636 522.677 393.013 522.197C392.831 521.552 392.637 520.911 392.434 520.273C391.694 520.614 390.226 521.765 389.503 521.116C389.578 520.588 389.628 520.633 390.074 520.209C389.618 518.83 388.738 518.675 389.85 517.736L390.519 517.311C391.775 516.499 393 515.736 394.46 515.349L395.375 515.082Z"/><path fill="#D8D7CC" d="M398.772 520.279C400.078 519.88 403.193 519.461 401.091 521.601C398.849 523.229 397.183 525.241 394.51 525.922C395.59 523.824 397.161 522.978 398.772 520.279Z"/><path fill="#1F3D2B" d="M391.992 523.593L392.531 523.315C394.72 522.206 396.575 521.337 398.772 520.279C397.161 522.978 395.59 523.824 394.51 525.922C394.039 524.826 393.851 524.376 392.721 523.906L391.992 523.593Z"/><path fill="#1F3D2B" d="M389.85 517.736L390.519 517.311C391.775 516.499 393 515.736 394.46 515.349L395.375 515.082C394.718 515.557 393.063 516.423 392.888 517.212L392.996 517.433C393.637 517.599 394.314 517.163 394.748 517.336C394.899 517.833 390.756 519.798 390.074 520.209C389.618 518.83 388.738 518.675 389.85 517.736Z"/><path fill="#3B4227" d="M400.459 516.599C397.638 519.49 396.512 520.044 393.013 522.197C392.831 521.552 392.637 520.911 392.434 520.273L400.459 516.599Z"/><path fill="#3B4227" d="M641.364 533.339C640.741 531.146 618.696 515.141 618.66 512.118C619.678 511.15 623.126 515.6 623.852 516.171C627.7 519.2 631.763 522.395 635.686 525.3C638.362 527.28 641.571 528.512 643.995 530.965C642.136 532.057 642.168 533.239 641.364 533.339Z"/><path fill="#4E3E21" d="M405.987 477.027C408.714 477.87 426.641 479.047 425.929 481.185C425.343 481.547 413.796 479.64 412.002 479.467C410.018 479.264 408.047 478.954 406.097 478.538L405.682 478.453C405.801 477.971 405.936 477.517 405.987 477.027Z"/><path fill="#DC6D1F" d="M490.503 460.121C491.307 461.026 494.374 463.828 494.586 464.499C494.086 466.702 488.641 462.377 487.804 461.433C489.191 460.945 489.241 460.908 490.503 460.121Z"/><path fill="#C88C60" d="M514.08 502.044C511.87 502.464 500.172 503.022 498.866 502.341L498.849 502.161C499.198 501.424 506.536 501.082 507.603 501.12C509.415 502.15 511.824 501.764 514.08 502.044Z"/><path fill="#3B4227" d="M647.265 493.362C645.914 493.466 645.285 493.598 643.988 493.813C641.366 494.246 639.016 495.625 636.525 496.032C636.105 495.905 635.608 494.943 635.512 494.707C635.211 493.967 635.552 493.25 636.251 493.95C636.201 493.9 637.051 494.698 637.131 494.708C638.659 494.901 642.941 492.63 644.403 492.255L644.982 492.687C645.755 493.283 646.301 493.297 647.265 493.362Z"/><path fill="#D9B98C" d="M588.062 513.84C590.137 515.673 592.646 517.501 594.523 519.18C593.862 519.655 593.208 520.139 592.56 520.632C590.519 519.087 589.291 516.144 588.062 513.84Z"/><path fill="#D8D7CC" d="M628.414 484.08C629.44 483.516 636.999 480.03 637.69 480.748C637.734 480.934 637.719 480.799 637.683 481.234C634.359 483.506 632.469 482.984 629.447 484.817C629.098 484.577 628.754 484.331 628.414 484.08Z"/><path fill="#3B4227" d="M398.772 520.279C399.46 519.121 399.551 519.06 400.589 518.175L401.019 518.381C404.878 520.025 404.277 519.799 401.417 522.71L400.803 523.327L401.091 521.601C403.193 519.461 400.078 519.88 398.772 520.279Z"/><path fill="#B7A998" d="M533.749 510.018C532.61 510.001 524.983 510.144 524.556 509.647C525.041 508.571 531.996 509.024 533.138 509.166L533.749 510.018Z"/><path fill="#4E3E21" d="M637.683 481.234L638.65 482.2C635.334 483.709 633.035 484.575 629.447 484.817C632.469 482.984 634.359 483.506 637.683 481.234Z"/><path fill="#C88C60" d="M598.411 509.727C601.578 510.152 604.804 510.448 607.849 510.861C606.236 511.452 606.328 511.403 605.126 512.65C603.59 511.593 600.275 510.491 598.411 509.727Z"/><path fill="#C1592D" d="M549.014 474.967C550.019 475.171 550.895 475.388 551.879 475.645L551.455 476.696C549.698 476.548 548.26 476.319 546.547 476.787C546.432 476.665 545.992 476.319 546.003 476.064C546.732 475.434 547.512 477.006 549.014 474.967Z"/><path fill="#3B4227" d="M642.671 525.9C644.103 526.616 644.786 526.881 646.159 527.757L645.666 529.125C643.922 527.72 642.942 527.238 641.037 526.091L642.671 525.9Z"/><path fill="#B7A998" d="M641.037 526.091C640.091 525.666 638.189 524.934 637.796 523.816C638.438 522.8 641.684 525.361 642.671 525.9L641.037 526.091Z"/><path fill="#BA9274" d="M551.879 475.645C554.839 476.367 554.081 476.647 556.895 476.097C556.575 477.694 552.502 477.053 551.455 476.696L551.879 475.645Z"/><path fill="#3B4227" d="M647.978 486.131C644.775 487.393 644.148 485.983 647.116 484.33L647.827 483.885L647.978 486.131Z"/><path fill="#C88C60" d="M567.97 489.105C572.906 488.983 576.838 491.171 581.759 491.942C582.974 492.133 586.221 492.228 585.763 493.892C583.731 493.87 565.64 492.576 567.97 489.105Z"/><path fill="#B7A998" d="M634.113 496.12C636.968 496.824 636.021 497.148 633.815 498.286C632.047 497.738 631.595 497.583 633.448 496.547L634.113 496.12Z"/><path fill="#6E8CA0" d="M596.125 558.248C605.981 558.129 600.522 558.545 603.263 555.524C604.503 556.419 602.891 564.378 602.735 566.215C602.429 564.611 602.199 563.525 601.755 561.951C600.713 562.583 595.834 563.134 596.527 560.502C596.812 560.008 597.626 559.034 597.309 558.505C596.813 558.23 596.706 558.259 596.125 558.248Z"/><path fill="#C88C60" d="M596.527 560.502C599.062 559.963 601.815 558.739 601.755 561.951C600.713 562.583 595.834 563.134 596.527 560.502Z"/><path fill="#4E3E21" d="M608.627 557.233C608.758 556.177 610.633 546.062 611.172 545.98L611.279 546.083C611.248 546.195 611.217 546.308 611.185 546.421C612.101 548.548 609.642 553.294 611.984 556.387L611.958 556.747C612.045 559.223 612.504 560.567 611.149 562.323C609.903 560.197 610.67 558.46 609.337 557.666L608.627 557.233Z"/><path fill="#7B7074" d="M611.149 562.323C610.97 559.753 610.503 558.515 611.958 556.747C612.045 559.223 612.504 560.567 611.149 562.323Z"/><path fill="#F5D9BF" d="M518.775 501.962C519.001 501.904 531.57 498.234 528.353 500.674C526.936 501.749 522.348 501.876 519.874 503.028C519.5 502.656 519.164 502.32 518.775 501.962Z"/><path fill="#7B7074" d="M557.482 557.181C560.477 557.52 563.641 557.704 566.663 557.925L566.752 559.328C563.75 558.867 560.784 558.622 557.854 558.22C557.734 557.753 557.746 557.57 557.482 557.181Z"/><path fill="#3B4227" d="M647.077 430.034C650.122 425.719 649.727 428.912 647.866 431.787L647.347 432.605C646.096 434.514 647.752 435.289 646.166 436.146C645.117 441.676 633.92 456.256 629.212 459.336L629.113 458.171C629.388 455.703 632.25 451.321 634.034 449.892C635.716 447.081 638.37 444.499 639.629 441.996C641.804 437.668 644.056 433.863 646.551 429.723L647.077 430.034Z"/><path fill="#DC6D1F" d="M636.553 449.919C639.4 448.851 638.148 444.998 640.291 443.516C643.221 441.489 643.601 438.694 646.166 436.146C645.117 441.676 633.92 456.256 629.212 459.336L629.113 458.171C629.388 455.703 632.25 451.321 634.034 449.892C634.874 449.908 635.713 449.917 636.553 449.919Z"/><path fill="#8C310C" d="M629.113 458.171C629.388 455.703 632.25 451.321 634.034 449.892C634.874 449.908 635.713 449.917 636.553 449.919C632.871 451.89 631.548 455.018 629.113 458.171Z"/><path fill="#DC6D1F" d="M647.077 430.034C650.122 425.719 649.727 428.912 647.866 431.787L647.347 432.605C646.095 432.318 645.726 432.226 646.55 430.903L647.077 430.034Z"/><path fill="#DC6D1F" d="M446.042 303.471C446.071 299.748 445.284 280.944 446.698 279.013C447.767 283.95 446.356 294.76 447.726 300.395C448.233 305.366 448.77 308.48 449.871 313.338C449.164 313.122 448.779 313.006 448.062 312.851C446.563 311.882 445.529 311.264 444.352 309.882C446.358 308.032 445.67 306.315 446.042 303.471Z"/><path fill="#1F3D2B" d="M446.042 303.471C446.611 306.358 447.667 310.266 448.062 312.851C446.563 311.882 445.529 311.264 444.352 309.882C446.358 308.032 445.67 306.315 446.042 303.471Z"/><path fill="#DC6D1F" d="M505.538 160.368C508.844 156.907 527.752 142.336 532.377 140.76L535.226 139.79C533.964 140.747 526.282 146.092 526.029 146.706L525.618 146.984C521.479 149.844 519.233 150.276 516.074 153.997C514.176 156.234 508.533 160.148 505.538 160.368Z"/><path fill="#4F1A03" d="M449.001 278.519C449.074 284.881 448.502 290.486 449.34 296.917C447.527 297.451 447.771 298.775 447.726 300.395C446.356 294.76 447.767 283.95 446.698 279.013C447.468 278.859 448.236 278.694 449.001 278.519Z"/><path fill="#DC6D1F" d="M447.396 274.456C445.699 272.155 446.358 265.599 447.313 262.995C447.923 261.332 448.729 252.46 450.345 257.115C449.289 260.86 448.549 266.059 448.405 269.931C447.992 271.988 448.067 272.487 447.396 274.456Z"/><path fill="#4E3E21" d="M447.726 300.395C447.771 298.775 447.527 297.451 449.34 296.917C449.493 298.702 451.403 315.035 451.239 315.237C450.839 315.173 450.111 313.713 449.871 313.338C448.77 308.48 448.233 305.366 447.726 300.395Z"/><path fill="#BA9274" d="M460.023 474.88C463.289 476.461 466.785 476.41 469.592 477.915L467.763 478.58C465.86 479.268 463.728 479.83 461.748 480.538C460.969 478.489 460.63 476.945 460.023 474.88Z"/><path fill="#4F1A03" d="M450.345 257.115L451.237 257.705C450.386 262.041 450.127 266.112 449.545 270.451L448.405 269.931C448.549 266.059 449.289 260.86 450.345 257.115Z"/><path fill="#3B4227" d="M448.405 269.931L449.545 270.451C449.495 272.711 449.465 273.669 449.13 275.907L447.396 274.456C448.067 272.487 447.992 271.988 448.405 269.931Z"/><path fill="#8C310C" d="M621.417 460.371C623.168 462.114 616.563 465.355 615.269 466.046C615.032 465.881 614.679 465.706 614.599 465.462C614.241 466.094 620.674 461.081 621.417 460.371Z"/><path fill="#8C310C" d="M390.04 360.793C391.768 362.191 391.053 364.441 390.871 366.627C389.518 365.078 389.975 363.028 390.04 360.793Z"/><path fill="#607CA3" d="M434.16 555.312C458.624 550.186 491.358 549.821 516.363 551.996L519.436 555.977C523.492 556.791 527.518 557.513 531.673 557.218C529.778 556.565 524.874 555.191 523.892 553.812C526.273 552.257 546.546 554.805 548.485 556.529L548.577 557.241L549.24 557.222C550.893 555.789 555.223 556.884 557.482 557.181C557.746 557.57 557.734 557.753 557.854 558.22C560.784 558.622 563.75 558.867 566.752 559.328L566.663 557.925C576.484 557.971 586.305 558.079 596.125 558.248C596.706 558.259 596.813 558.23 597.309 558.505C597.626 559.034 596.812 560.008 596.527 560.502C595.834 563.134 600.713 562.583 601.755 561.951C602.199 563.525 602.429 564.611 602.735 566.215C604.481 567.473 605.281 567.482 607.418 567.528C620.696 568.365 631.223 568.969 640.864 579.717C658.588 599.474 648.787 637.859 626.201 649.411L626.508 648.901C623.056 650.637 606.575 660.453 604.857 663.971C603.317 667.128 601.729 667.819 598.124 669.79C598.388 668.538 598.391 668.815 599.09 667.644C595.672 669.056 591.694 671.681 588.307 673.491C588.2 674.624 588.155 675.15 587.68 676.183C585.403 677.717 580.206 678.283 577.867 681.006C577.96 681.533 578.053 682.059 578.147 682.586C575.125 686.603 568.118 692.097 563.733 694.622C563.107 696.143 562.521 696.282 562.137 698C561.399 699.892 557.905 701.527 556.28 701.285C555.689 700.777 555.217 700.367 554.59 699.898C551.293 702.107 549.403 703.437 546.573 706.282L547.144 707.826C547.36 709.027 545.069 711.699 543.178 711.185L542.821 710.604C538.261 714.932 528.743 722.831 525.549 727.284C526.665 727.179 527.779 727.06 528.892 726.929C528.594 728.905 526.04 731.585 524.631 732.954C523.667 732.675 523.462 731.555 522.847 730.561C517.976 735.171 512.74 740.568 508.643 745.899C506.291 748.96 505.141 752.097 502.302 755.315C503.349 755.845 503.718 755.931 504.853 756.272L504.964 756.908C501.536 759.974 501.223 758.149 498.166 762.554C498.531 764.191 498.699 765.346 497.664 766.778C495.712 769.482 495.915 767.7 494.418 767.844C493.386 768.978 493.408 768.886 491.987 769.524C492.689 770.311 492.286 769.902 493.222 770.728C491.988 773.273 488.976 777.028 486.986 779.053L486.619 779.025L487.616 776.293C486.353 776.275 482.674 780.09 481.389 781.301C482.905 782.098 483.761 781.589 483.721 783.024C482.04 785.94 480.222 787.962 477.859 790.385C477.401 791.797 476.407 792.461 475.3 793.535C473.942 795.24 473.02 796.595 471.283 797.926C464.706 803.287 459.633 811.976 452.107 818.356C451.724 818.803 451.52 819.122 451.191 819.603C449.642 822.312 447.726 822.853 445.311 824.623C444.723 825.101 441.102 827.75 441.584 828.501C442.289 829.599 442.033 829.196 440.712 830.348C439.031 831.815 431.208 839.938 429.765 840.082C429.493 839.548 430.71 838.864 430.817 837.76C427.587 839.079 427.364 841.661 424.049 841.827C423.428 841.46 423.198 841.354 422.66 840.882C414.79 845.788 404.12 855.209 396.934 861.121C393.545 863.91 388.443 869.146 385.049 871.209L384.466 870.791C383.046 865.314 388.878 864.102 392.136 860.583C395.439 857.016 407.426 847.291 409.378 843.565C405.897 844.934 387.766 862.335 382.688 862.919L382.187 862.21C382.543 860.328 384.277 858.106 385.395 856.425C383.339 857.395 381.377 858.698 379.359 858.208C379.072 856.65 378.805 856.028 378.162 854.564L377.863 853.901C379.857 850.441 398.934 831.396 402.424 829.25L402.813 827.736C400.268 829.612 394.819 834.039 392.574 835.543C389.318 837.725 375.597 851.663 373.779 851.937C372.832 849.463 376.412 847.494 377.468 845.489C380.851 839.065 387.16 834.651 392.714 830.144L392.316 829.172C382.834 835.995 374.019 839.334 366.588 844.61C365.661 843.27 364.177 841.718 364.335 840.441L363.107 839.562C361.763 838.617 360.124 836.311 359.786 834.678L360.774 833.634L360.251 833.011C358.971 832.759 359.206 832.721 358 832.025C357.94 831.695 357.881 831.365 357.821 831.035C364.104 824.933 378.2 816.868 382.682 809.737C372.923 814.26 366.095 822.071 356.166 826.263C354.656 826.9 354.653 826.604 353.321 825.962C353.015 825.451 352.067 823.984 352.605 823.523C357.484 819.354 394.167 792.789 394.87 788.837C391.751 789.264 362.897 813.044 356.832 811.524L356.221 810.327C356.738 808.468 370.876 800.527 373.703 798.51C378.928 794.783 383.76 790.802 388.742 786.79L388.787 786.167C387.814 786.035 386.639 786.409 385.86 786.97C376.317 793.841 365.899 798.14 355.642 803.746C355.355 803.757 350.716 800.992 350.659 800.787C352.398 798.898 354.103 796.978 355.774 795.029C351.376 796.34 346.924 798.912 342.704 799.56L341.847 798.727C340.891 795.101 346.753 794.36 349.442 793.067C351.935 791.869 354.659 789.971 357.192 789.267L358.807 788.811L359.598 788.593C355.213 787.988 347.785 789.859 344.898 787.962C345.531 785.813 358.291 783.837 361.332 782.798C387.798 773.755 415.182 758.947 436.328 740.637C437.565 740.877 436.96 740.834 438.141 740.79C438.627 739.974 439.132 739.169 439.657 738.378C441.542 735.545 443.468 732.321 445.737 729.799C448.175 727.089 451.435 725.156 453.948 722.508C457.48 718.789 467.191 703.713 471.162 703.117C471.422 703.078 471.685 703.073 471.946 703.051C482.481 688.081 500.852 677.913 514.923 666.702C524.837 658.802 531.589 652.367 542.735 645.297C553.099 638.72 564.016 633.059 575.363 628.378C591.562 621.621 605.723 623.025 620.751 611.232C616.658 612.077 612.557 613.443 608.395 613.632C607.11 611.957 606.931 614.011 604.15 612.783C610.846 609.942 620.369 608.835 628.365 606.048C621.769 606.356 612.832 608.57 606.033 609.614C597.278 610.957 587.769 615.043 579.377 617.771C575.974 618.999 572.143 619.619 568.694 620.754C568.455 621.533 568.203 622.257 567.938 623.026C567.397 626.956 560.697 627.46 557.36 623.916C556.348 625.072 556.184 625.366 555.681 626.818C553.24 626.549 553.119 626.103 551.403 627.038C547.908 632.705 542.325 627.663 542.111 635.11C542.033 637.862 541.069 639.344 538.243 639.571C535.724 640.09 533.267 640.181 530.699 640.642C529.696 641.996 528.776 641.781 527.363 642.954L526.707 643.488L524.423 644.872L524.44 645.34C524.545 648.799 523.987 648.406 521.039 650.387C520.509 649.776 518.635 647.691 518.494 647.026L518.36 646.478C513.862 647.066 506.803 651.231 503.862 654.534L503.782 656.782C504.115 658.929 502.089 659.899 500.248 660.058L498.903 660.163C498.669 659.356 498.584 659.004 498.235 658.245C495.439 660.569 495.041 661.382 494.031 664.901C490.825 667.17 484.788 670.78 482.525 673.325C485.916 672.114 490.352 670.226 493.563 669.237C492.021 670.815 473.501 686.026 472.713 686.332L472.216 685.884L472.2 685.542L471.354 684.226C462.645 689.392 462.211 692.078 456.432 699.924C454.533 702.269 450.501 704.129 449.203 706.896C443.422 719.221 431.905 743.189 418.508 719.932C418.255 711.332 421.393 702.386 423.935 694.179C417.683 690.744 407.807 682.748 403.814 676.507C399.959 670.466 400.801 656.285 403.137 649.428C407.16 637.621 428.059 626.753 438.608 620.759C441.855 618.914 443.676 620.629 447.889 617.542L448.361 617.189C451.191 614.238 454.183 612.871 458.303 612.391C459.324 612.272 459.184 613.51 458.94 614.132L458.69 614.798L459.026 616.605L459.875 617.023C463.167 615.78 466.792 611.891 469.941 611.351L470.234 611.663C469.09 612.229 468.21 612.651 467.12 613.341C469.056 613.194 469.625 612.866 471.397 612.166L471.577 611.93C471.611 613.432 471.569 615.954 470.33 616.961C459.49 625.784 448.065 635.128 438.977 645.886C438.823 646.958 438.815 647.146 438.849 648.237C439.987 648.677 439.963 648.694 441.171 648.792C443.666 645.783 451.695 636.477 455.807 636.871C456.01 637.885 456.172 638.377 456.499 639.362L457.445 639.419C459.062 638.259 460.108 637.623 461.838 636.627L462.569 638.308C461.598 639.776 461.12 639.943 461.074 641.424C462.043 641.108 462.277 640.906 463.289 640.955C461.999 643.707 459.407 647.355 457.764 650.004C450.449 661.798 445.743 666.627 441.904 679.866C442.166 680.714 442.42 681.564 442.667 682.417C448.339 671.95 452.128 665.431 461.037 657.203C464.268 654.219 467.402 649.479 470.696 646.321C477.731 639.575 484.876 632.959 492.154 626.48C494.968 623.599 500.221 621.014 502.946 618.297C510.959 610.309 519.295 604.616 529.248 599.219C532.728 597.332 536.684 595.251 540.045 593.042L540.565 592.694L540.39 592.884C541.036 590.627 542.008 587.888 542.752 585.617C550.601 580.994 554.323 581.045 561.979 574.636L561.677 573.744C555.698 575.682 548.413 580.338 543.265 581.549C533.464 583.856 523.615 585.878 513.911 588.946C508.887 590.534 503.309 592.333 498.259 593.538C494.249 594.494 489.375 594.298 485.091 595.104C469.787 598.064 454.985 603.194 441.131 610.339C431.452 615.236 426.417 620.031 417.933 625.316C400.22 609.2 407.443 585.371 415.813 566.67C418.209 561.317 428.844 556.783 434.16 555.312Z"/><path fill="#5B6F95" d="M449.191 817.864C450.456 817.667 450.501 818.512 451.191 819.603C449.642 822.312 447.726 822.853 445.311 824.623C444.723 825.101 441.102 827.75 441.584 828.501C442.289 829.599 442.033 829.196 440.712 830.348C439.031 831.815 431.208 839.938 429.765 840.082C429.493 839.548 430.71 838.864 430.817 837.76L429.557 836.749C430.258 836.059 430.966 835.427 431.654 834.759L449.191 817.864Z"/><path fill="#1F3D2B" d="M363.107 839.562C366.015 837.829 365.898 837.743 368.304 835.63C376.658 828.295 382.995 824.412 393.38 821.438C387.974 825.41 378.178 831.622 372.193 834.808C366.87 837.643 368.759 837.731 364.335 840.441L363.107 839.562Z"/><path fill="#1F3D2B" d="M360.251 833.011C368.85 829.749 378.881 819.618 389.044 815.027C385.388 819.788 366.361 832.202 360.774 833.634L360.251 833.011Z"/><path fill="#6E8CA0" d="M469.999 796.53C470.703 797.195 470.805 797.22 471.283 797.926C464.706 803.287 459.633 811.976 452.107 818.356C451.565 811.398 461.88 809.574 462.333 803.558C462.858 802.715 463.585 802.045 464.188 801.258C465.722 802.375 469.677 798.449 469.999 796.53Z"/><path fill="#1F3D2B" d="M448.198 817.506L449.191 817.864L431.654 834.759C430.966 835.427 430.258 836.059 429.557 836.749L430.817 837.76C427.587 839.079 427.364 841.661 424.049 841.827C423.428 841.46 423.198 841.354 422.66 840.882C429.475 834.209 437.642 828.872 444.229 821.996C445.548 820.619 446.874 818.925 448.198 817.506Z"/><path fill="#6E8CA0" d="M429.557 836.749L430.817 837.76C427.587 839.079 427.364 841.661 424.049 841.827C424.595 839.638 427.651 838.504 429.557 836.749Z"/><path fill="#1F3D2B" d="M475.3 793.535C473.52 788.773 478.135 784.523 481.389 781.301C482.905 782.098 483.761 781.589 483.721 783.024C482.04 785.94 480.222 787.962 477.859 790.385C477.401 791.797 476.407 792.461 475.3 793.535Z"/><path fill="#6E8CA0" d="M477.859 790.385C478.516 787.531 480.58 783.557 483.721 783.024C482.04 785.94 480.222 787.962 477.859 790.385Z"/><path fill="#BA9274" d="M557.854 558.22C560.784 558.622 563.75 558.867 566.752 559.328C567.804 559.43 571.479 559.322 571.951 560.495C572.08 560.808 572.054 561.164 571.882 561.455C571.362 562.333 564.846 562.014 563.436 561.94C557.974 561.652 558.178 562.513 557.854 558.22Z"/><path fill="#1F3D2B" d="M462.333 803.558C461.88 809.574 451.565 811.398 452.107 818.356C451.724 818.803 451.52 819.122 451.191 819.603C450.501 818.512 450.456 817.667 449.191 817.864L448.198 817.506C452.497 812.456 457.227 807.789 462.333 803.558Z"/><path fill="#1F3D2B" d="M554.59 699.898C556.658 698.237 559.916 695.369 562.066 693.766C562.317 693.578 563.605 694.538 563.733 694.622C563.107 696.143 562.521 696.282 562.137 698C561.399 699.892 557.905 701.527 556.28 701.285C555.689 700.777 555.217 700.367 554.59 699.898Z"/><path fill="#5B6F95" d="M556.28 701.285C556.991 700.095 560.696 696.505 561.755 697.624L562.137 698C561.399 699.892 557.905 701.527 556.28 701.285Z"/><path fill="#5B6F95" d="M557.36 623.916C558.76 623.577 560.106 623.116 561.47 622.654C565.099 624.935 564.227 623.507 567.938 623.026C567.397 626.956 560.697 627.46 557.36 623.916Z"/><path fill="#1F3D2B" d="M526.707 643.488C526.635 642.764 526.269 641.517 526.841 640.871C528.78 638.686 531.459 636.775 534.303 636.019C534.613 635.937 535.465 636.046 535.325 636.46C535.047 637.279 533.411 638.236 532.674 638.815C531.495 639.489 531.352 639.553 530.699 640.642C529.696 641.996 528.776 641.781 527.363 642.954L526.707 643.488Z"/><path fill="#475E6B" d="M448.361 617.189C451.191 614.238 454.183 612.871 458.303 612.391C459.324 612.272 459.184 613.51 458.94 614.132L458.69 614.798C456.294 614.666 451.165 616.567 448.361 617.189Z"/><path fill="#1F3D2B" d="M525.549 727.284C526.665 727.179 527.779 727.06 528.892 726.929C528.594 728.905 526.04 731.585 524.631 732.954C523.667 732.675 523.462 731.555 522.847 730.561C523.835 729.449 524.617 728.362 525.549 727.284Z"/><path fill="#5B6F95" d="M528.892 726.929C528.594 728.905 526.04 731.585 524.631 732.954C524.645 729.795 526.281 728.596 528.892 726.929Z"/><path fill="#1F3D2B" d="M350.659 800.787C354.461 801.297 357.097 798.994 361.239 797.159L359.818 798.762C358.738 799.957 354.785 802.544 355.642 803.746C355.355 803.757 350.716 800.992 350.659 800.787Z"/><path fill="#1F3D2B" d="M464.188 801.258C465.351 798.714 466.795 794.858 469.999 796.53C469.677 798.449 465.722 802.375 464.188 801.258Z"/><path fill="#475E6B" d="M438.849 648.237C437.522 649.966 431.887 656.241 429.818 656.393L429.728 656.308C429.752 655.606 430.171 655.238 430.734 654.885C433.918 652.893 435.94 649.406 438.351 646.629L438.977 645.886C438.823 646.958 438.815 647.146 438.849 648.237Z"/><path fill="#475E6B" d="M494.418 767.844C495.018 765.321 496.305 764.415 498.166 762.554C498.531 764.191 498.699 765.346 497.664 766.778C495.712 769.482 495.915 767.7 494.418 767.844Z"/><path fill="#C88C60" d="M548.577 557.241L549.24 557.222C549.607 557.714 551.375 559.773 550.932 560.333C549.35 560.687 543.752 560.216 547.908 557.671L548.577 557.241Z"/><path fill="#1F3D2B" d="M561.47 622.654C564.082 622.095 566.181 621.759 568.694 620.754C568.455 621.533 568.203 622.257 567.938 623.026C564.227 623.507 565.099 624.935 561.47 622.654Z"/><path fill="#475E6B" d="M503.782 656.782C504.115 658.929 502.089 659.899 500.248 660.058L498.903 660.163C500.582 657.439 500.775 657.444 503.782 656.782Z"/><path fill="#1F3D2B" d="M498.235 658.245C500.062 657.024 502.016 655.694 503.862 654.534L503.782 656.782C500.775 657.444 500.582 657.439 498.903 660.163C498.669 659.356 498.584 659.004 498.235 658.245Z"/><path fill="#2F474E" d="M471.354 684.226C472.479 683.248 475.26 680.507 476.27 679.878C476.302 679.907 476.333 679.935 476.365 679.964C476.168 681.715 473.421 683.794 472.2 685.542L471.354 684.226Z"/><path fill="#1F3D2B" d="M564.808 573.516L565.726 573.362C566.814 573.17 570.567 572.247 571.341 572.75L571.381 572.839L571.087 573.095L571.391 572.933C569.188 574.396 567.475 574.676 565.064 574.109L564.808 573.516Z"/><path fill="#6E8CA0" d="M532.674 638.815C535.245 639.887 535.042 638.361 538.243 639.571C535.724 640.09 533.267 640.181 530.699 640.642C531.352 639.553 531.495 639.489 532.674 638.815Z"/><path fill="#6E8CA0" d="M547.144 707.826C547.36 709.027 545.069 711.699 543.178 711.185C544.542 709.764 545.41 708.546 547.144 707.826Z"/><path fill="#1F2928" d="M546.573 706.282L547.144 707.826C545.41 708.546 544.542 709.764 543.178 711.185L542.821 710.604L546.573 706.282Z"/><path fill="#1F3D2B" d="M578.147 682.586C577.034 682.78 575.11 684.281 574.495 683.803L574.497 683.634C575.174 682.769 576.938 681.597 577.867 681.006C577.96 681.533 578.053 682.059 578.147 682.586Z"/><path fill="#475E6B" d="M561.677 573.744C563.114 573.264 563.261 573.38 564.808 573.516L565.064 574.109C563.814 574.25 563.184 574.372 561.979 574.636L561.677 573.744Z"/><path fill="#1F3D2B" d="M441.904 679.866C442.166 680.714 442.42 681.564 442.667 682.417C442.483 682.667 441.658 684.202 441.27 684.107C441.026 683.732 441.128 683.365 441.227 682.91L441.904 679.866Z"/><path fill="#475E6B" d="M402.813 827.736C404.75 825.58 406.121 826.513 402.424 829.25L402.813 827.736Z"/><path fill="#475E6B" d="M392.316 829.172C394.631 827.297 396.313 827.525 392.714 830.144L392.316 829.172Z"/><path fill="#1F3D2B" d="M474.175 755.915L474.742 757.173C466.597 774.431 448.619 789.416 435.107 802.304C429.334 807.811 429.107 809.748 421.092 811.234C425.279 807.599 425.245 806.114 428.54 802.394C429.073 802.513 429.605 802.636 430.136 802.763C435.308 796.716 440.39 793.185 446.151 787.943C446.752 787.396 447.427 784.284 447.568 783.277C447.926 780.72 453.066 780.925 454.822 779.282C460.785 772.653 468.828 762.745 474.175 755.915Z"/><defs><linearGradient id="gradient_0" gradientUnits="userSpaceOnUse" x1="455.95117" y1="586.13019" x2="458.18808" y2="593.16345"><stop offset="0" stop-color="#1F471E"/><stop offset="1" stop-color="#2C4337"/></linearGradient></defs><path fill="url(#gradient_0)" d="M476.758 583.054C481.182 583.161 486.059 583.167 490.419 583.654C481.481 585.946 471.499 587.155 462.342 589.433C455.981 591.016 442.875 596.313 437.221 595.737C435.998 595.623 434.776 595.501 433.554 595.369C432.176 596.665 430.164 598.677 428.715 599.77L427.557 599.242L431.05 594.815C437.295 593.067 440.251 591.154 445.906 588.938C450.26 587.231 459.17 585.276 463.758 584.306L470.531 586.402C472.566 585.321 474.779 584.203 476.758 583.054Z"/><path fill="#BA9274" d="M576.298 561.062C581.796 560.711 587.989 562.009 593.508 562.431C596.221 562.639 595.763 562.045 596.396 564.784C592.988 565.465 590.521 564.216 586.998 563.547C581.572 562.515 578.524 566.27 576.298 561.062Z"/><path fill="#C88C60" d="M507.64 552.748C509.825 553.019 512.005 553.73 513.294 555.596C509.423 555.844 507.471 556.71 507.64 552.748Z"/><path fill="#2F474E" d="M474.175 755.915C474.437 755.338 479.073 748.677 479.744 748.47L479.99 748.55C480.423 749.439 475.557 755.832 474.742 757.173L474.175 755.915Z"/><path fill="#2F474E" d="M428.715 599.77C423.125 603.843 421.548 602.885 427.557 599.242L428.715 599.77Z"/><path fill="#BA9274" d="M575.02 737.699C575.563 737.724 575.977 737.682 576.514 737.648L577.512 737.727C580.779 737.908 579.899 739.711 580.057 742.741L579.908 743.635C583.439 748.223 585.26 752.754 587.737 758.002C586.685 769.994 583.984 784.301 582.321 796.616C579.274 819.512 576.693 842.466 574.579 865.467C574.253 869.099 573.198 889.527 571.816 891.23L571.481 891.329C570.574 891.671 569.994 891.953 569.129 892.371L568.621 892.57C568.251 891.305 568.008 890.531 567.777 889.225C565.945 890.668 563.294 892.891 561.381 894.055L554.53 891.835C554.402 894.33 554.741 898.125 553.28 899.523L554.03 899.256L553.564 899.783C552.838 899.274 550.668 895.833 549.554 894.631C548.493 895.945 547.876 897.186 546.54 897.714L545.91 897.07L545.092 896.619C544.793 898.6 545.234 898.066 544.209 899.323C542.395 898.359 541.682 895.952 540.778 893.887C538.272 895.016 539.78 897.492 537.434 899.115C535.581 898.533 534.742 896.853 533.704 895.215C533.395 896.812 533.073 900.038 532.177 900.998L530.731 899.947C529.312 900.365 526.612 902.388 525.26 903.311C523.151 901.567 524.683 900.42 522.968 900.332C520.558 901.851 518.177 902.856 515.721 900.685L515.353 899.309L514.801 899.353C511.667 899.515 511.059 899.85 508.251 897.856C506.727 896.775 503.149 901.36 500.288 900.943C499.285 899.864 498.955 899.425 497.752 898.555C496.67 899.54 496.652 899.656 495.737 900.806L494.958 900.612C493.541 897.934 494.388 889.794 493.019 888.639C492.114 892.257 492.217 895.782 492.062 899.536L488.806 895.434C488.55 887.347 486.689 882.182 485.312 874.401C482.961 860.889 480.788 847.347 478.794 833.778L477.779 834.69L480.981 868.459C481.376 872.532 482.753 883.314 482.303 886.951C480.906 886.857 480.151 886.992 478.755 887.098C479.039 889.685 479.466 891.837 478.193 894.159C475.072 890.607 472.473 856.507 471.827 849.687C470.707 838.124 469.418 826.577 467.96 815.051C473.036 809.892 477.507 804.197 482.536 799.033C485.295 796.2 488.458 793.751 491.033 790.742C496.085 784.837 500.484 778.391 505.463 772.431C509.488 767.614 514.137 763.927 517.42 758.462C518.599 756.5 528.309 742.513 529.387 742.533C530.356 742.551 530.09 743.177 531.358 742.861C531.623 741.569 531.627 741.373 532.162 740.187C534.646 739.538 536.715 740.953 539.144 740.693C543.212 740.257 547.391 741.926 550.44 738.992C552.007 738.867 551.828 739.151 553.479 740.162C561.73 738.372 566.958 738.676 575.02 737.699Z"/><path fill="#BA9274" d="M576.514 737.648L577.512 737.727C580.779 737.908 579.899 739.711 580.057 742.741C576.137 742.531 577.082 741.719 576.514 737.648Z"/><path fill="#3B4227" d="M575.02 737.699C575.563 737.724 575.977 737.682 576.514 737.648C577.082 741.719 576.137 742.531 580.057 742.741L579.908 743.635L579.292 743.526C574.891 742.714 575.007 744.415 575.02 737.699Z"/><path fill="#4E3E21" d="M569.129 892.371C569.401 890.732 569.457 886.798 569.981 885.682C571.089 883.318 571.251 890.424 571.481 891.329C570.574 891.671 569.994 891.953 569.129 892.371Z"/><path fill="#3B4227" d="M478.755 887.098C478.637 880.537 480.462 884.924 481.699 886.292L482.303 886.951C480.906 886.857 480.151 886.992 478.755 887.098Z"/><path fill="#1F3D2B" d="M514.801 899.353C513.977 890.757 516.609 892.246 515.353 899.309L514.801 899.353Z"/><path fill="#4E3E21" d="M477.779 834.69C477.127 830.236 477.497 826.327 478.794 833.778L477.779 834.69Z"/><path fill="#4E3E21" d="M545.092 896.619C544.842 892.553 546.049 892.759 545.91 897.07L545.092 896.619Z"/><path fill="#607CA3" d="M621.544 728.102C623.681 728.308 623.18 729.628 623.313 731.824C629.781 754.539 659.454 790.435 678.552 804.134C678.266 804.717 677.98 805.299 677.694 805.882L676.062 807.59C672.552 807.593 670.501 803.412 668.768 800.668L668.119 800.702C666.631 805.393 676.748 808.254 670.532 812.57C669.145 812.477 668.861 812.524 667.912 811.289L666.85 811.595C665.068 810.918 664.21 807.237 658.986 804.304C660.483 807.602 664.11 814.927 663.856 818.274C661.511 817.816 656.583 808.258 655.091 805.932C656.54 810.639 660.203 817.808 659.707 821.514C658.707 821.762 658.559 822.207 657.803 822.287L657.152 823.51L656.314 823.585L654.384 821.715C652.879 828.347 650.025 820.639 648.634 817.975C646.19 814.428 642.232 808.867 640.372 805.191C634.396 793.375 630.667 784.697 622.76 773.901L621.878 774.501C629.308 791.152 639.222 822.842 640.014 841.07L639.389 841.936C638.414 841.693 638.519 841.88 638.086 840.914C633.632 830.961 634.929 821.744 630.157 811.409C630.926 817.921 631.738 824.486 632.376 831.014C632.677 834.094 633.95 840.142 633.726 842.916C632.1 843.656 632.962 843.393 630.766 843.082C629.829 842.24 629.816 841.621 629.456 840.382C629.265 840.115 628.681 838.93 628.657 838.91C627.679 839.787 628.864 840.014 626.521 841.619C623.661 839.718 625.251 835.141 622.407 829.393C621.884 832.538 622.191 835.283 621.922 838.551C621.929 841.092 621.882 846.232 619.446 847.535L618.727 847.062C617.651 844.463 617.478 839.08 617.181 836.013C616.121 836.299 615.942 836.372 614.867 836.473C614.222 835.265 614.085 834.62 612.902 834.013C610.684 835.615 612.254 836.552 610.165 838.356C608.997 837.346 608.889 836.709 608.841 835.029C608.312 816.503 604.842 798.727 601.99 780.517C600.705 772.319 597.176 767.85 595.177 760.669C595.812 758.717 595.361 758.586 593.955 757.404C593.64 754.012 592.862 750.213 592.249 746.831C594.847 748.921 597.987 750.954 600.773 752.846C599.609 748.955 594.279 738.886 592.138 735.185C599.146 734.77 609.372 731.523 616.537 729.601C618.75 729.469 617.87 729.094 619.706 728.26C620.205 728.228 621.039 728.197 621.544 728.102Z"/><path fill="#1F3D2B" d="M626.521 841.619C626.994 835.438 624.61 821.964 624.204 815.399C625.864 819.568 630.372 836.886 629.456 840.382C629.265 840.115 628.681 838.93 628.657 838.91C627.679 839.787 628.864 840.014 626.521 841.619Z"/><path fill="#475E6B" d="M621.544 728.102C623.681 728.308 623.18 729.628 623.313 731.824L621.925 731.957L620.814 731.601C618.759 733.83 620.447 733.364 619.703 735.031C618.697 735.404 618.215 731.081 616.537 729.601C618.75 729.469 617.87 729.094 619.706 728.26C620.205 728.228 621.039 728.197 621.544 728.102Z"/><path fill="#6E8CA0" d="M621.544 728.102C623.681 728.308 623.18 729.628 623.313 731.824L621.925 731.957L620.814 731.601C620.697 730.084 620.393 729.65 619.706 728.26C620.205 728.228 621.039 728.197 621.544 728.102Z"/><path fill="#1F3D2B" d="M619.706 728.26C620.205 728.228 621.039 728.197 621.544 728.102C621.566 729.804 621.702 730.315 621.925 731.957L620.814 731.601C620.697 730.084 620.393 729.65 619.706 728.26Z"/><path fill="#475E6B" d="M666.85 811.595C667.021 805.914 665.437 808.802 663.669 803.425C663.118 801.752 664.694 801.372 666.187 803.189C668.437 805.926 668.164 807.833 667.912 811.289L666.85 811.595Z"/><path fill="#5B6F95" d="M648.634 817.975C651.611 817.749 652.668 819.154 654.384 821.715C652.879 828.347 650.025 820.639 648.634 817.975Z"/><path fill="#1F3D2B" d="M657.803 822.287L657.314 821.408C655.146 817.423 653.949 815.542 652.578 811.115L653.821 812.902C656.097 816.107 656.695 818.575 659.707 821.514C658.707 821.762 658.559 822.207 657.803 822.287Z"/><path fill="#2F474E" d="M615.913 827.572C616.771 831.16 616.913 832.324 617.181 836.013C616.121 836.299 615.942 836.372 614.867 836.473C615.639 834.807 615.685 829.944 615.913 827.572Z"/><path fill="#2F474E" d="M621.922 838.551C621.491 835.176 621.622 831.55 621.467 828.137C621.45 827.767 621.66 827.825 621.833 827.891L621.837 827.973C622.349 828.757 622.165 828.433 622.407 829.393C621.884 832.538 622.191 835.283 621.922 838.551Z"/><path fill="#2F474E" d="M621.878 774.501C621.64 774.137 620.342 772.46 620.795 771.902C621.5 771.836 622.432 773.443 622.76 773.901L621.878 774.501Z"/><path fill="#607CA3" d="M638.315 649.294C645.181 665.134 647.139 681.953 641.172 698.506C634.166 717.94 606.885 722.707 588.876 724.719C588.246 725.137 579.053 726.091 578.198 725.949C574.402 726.14 571.07 727.023 567.492 726.093C565.912 725.683 564.41 725.476 562.776 725.472C557.517 725.375 551.955 727.03 547.071 725.442C546.766 725.343 546.619 723.83 546.579 723.568C548.3 720.703 563.612 707.272 567.031 704.684C568.521 704.644 568.558 704.742 570.011 705.191C573.198 703.805 576.311 702.436 579.685 701.555C580.353 701.381 579.569 699.889 581.591 699.2C591.755 695.734 600.597 690.425 609.849 685.123C613.982 682.755 618.401 680.957 622.609 678.432C615.617 680.715 606.883 686.066 600.978 684.107C597.938 685.145 600.048 686.067 598.182 685.178L598.099 684.42C598.566 683.872 599.165 683.196 599.407 682.52C601.32 677.179 629.768 663.809 629.74 659.681L626.887 660.521L626.714 660.03C628.851 656.501 634.886 652.059 638.315 649.294Z"/><path fill="#1F3D2B" d="M546.579 723.568C554.741 722.584 561.729 722.134 569.957 722.207C570.894 722.215 577.18 721.045 577.587 721.769C579.941 725.959 582.707 719.295 588.634 720.804L588.448 720.993L588.475 721.04C588.191 722.196 582.447 721.597 582.64 723.264C582.812 724.751 588.235 724.735 588.876 724.719C588.246 725.137 579.053 726.091 578.198 725.949C574.402 726.14 571.07 727.023 567.492 726.093C565.912 725.683 564.41 725.476 562.776 725.472C557.517 725.375 551.955 727.03 547.071 725.442C546.766 725.343 546.619 723.83 546.579 723.568Z"/><path fill="#5B6F95" d="M575.146 722.59C576.406 723.619 577.659 724.487 578.198 725.949C574.402 726.14 571.07 727.023 567.492 726.093C565.912 725.683 564.41 725.476 562.776 725.472C561.736 725.21 560.743 725.02 559.719 724.768C559.974 723.755 566.055 723.952 567.248 723.837C570.112 723.56 572.331 723.112 575.146 722.59Z"/><path fill="#5B6F95" d="M462.51 635.503C467.553 625.206 477.789 622.267 470.281 630.462C468.184 632.759 465.965 634.941 463.634 636.999C463.274 637.431 462.919 637.868 462.569 638.308L461.838 636.627C462.461 636.251 462.477 636.232 462.51 635.503Z"/><path fill="#475E6B" d="M461.838 636.627C462.461 636.251 462.477 636.232 462.51 635.503C462.904 636.163 463.136 636.406 463.634 636.999C463.274 637.431 462.919 637.868 462.569 638.308L461.838 636.627Z"/><path fill="#5B6F95" d="M518.36 646.478L518.494 647.026C518.635 647.691 520.509 649.776 521.039 650.387C517.503 652.92 518.758 650.783 517.692 650.1C517.004 649.658 514.227 653.618 513.179 653.84C512.887 653.901 510.713 654.658 510.55 653.42C511.571 651.121 516.392 649.192 517.834 647.212L518.36 646.478Z"/><path fill="#A97335" d="M389.321 381.928C389.647 384.224 390.15 386.203 390.181 388.581C388.496 391.784 393.115 400.514 392.18 402.107C390.903 402.42 390.277 397.576 390.12 396.74C389.328 392.5 387.232 385.914 389.321 381.928Z"/><path fill="#5B6F95" d="M420.595 845.373C423.175 846.551 414.796 851.758 413.753 852.371C410.675 850 418.628 846.067 420.595 845.373Z"/><path fill="#A97335" d="M456.735 227.529C457.733 224.434 459.093 221.323 460.34 218.382C461.379 215.931 462.081 212.433 463.875 210.694C464 210.573 464.523 210.604 464.407 210.907C464.355 211.631 463.858 212.146 463.53 212.773C462.148 214.992 461.574 217.21 461.05 219.729C460.485 222.442 458.419 225.481 457.558 228.112L456.735 227.529Z"/><path fill="#475E6B" d="M516.922 740.569C517.203 740.73 517.128 740.644 517.214 740.802C516.443 743.131 510.716 748.821 508.772 750.618C508.585 750.484 507.926 750.07 507.989 749.925C508.706 748.271 515.823 741.679 516.922 740.569Z"/><path fill="#6E8CA0" d="M596.561 770.396C599.17 772.3 600.874 779.611 601.62 782.652C599.636 781.038 597.332 773.117 596.561 770.396Z"/><path fill="#6E8CA0" d="M459.373 699.457C459.281 701.932 455.957 704.362 454.044 706.482L452.917 707.734C452.213 704.895 457.311 701.079 459.373 699.457Z"/><path fill="#DC6D1F" d="M652.739 413.367C654.26 414.825 652.201 420.321 651.495 422.103C649.452 421.564 652.211 414.592 652.739 413.367Z"/><path fill="#6E8CA0" d="M596.409 615.988C598.374 615.094 602.053 613.371 604.15 612.783C606.931 614.011 607.11 611.957 608.395 613.632C608.633 613.512 596.926 615.896 596.409 615.988Z"/><path fill="#5B6F95" d="M678.552 804.134C683.793 807.741 682.197 810.695 677.694 805.882C677.98 805.299 678.266 804.717 678.552 804.134Z"/><path fill="#5B6F95" d="M538.943 717.872C540.644 719.201 538.111 720.73 536.887 721.923C535.368 719.778 536.561 719.78 538.488 718.241L538.943 717.872Z"/><path fill="#7E703A" d="M456.735 227.529L457.558 228.112C456.995 229.297 455.86 234.004 455.138 234.136C454.181 233.806 456.532 228.031 456.735 227.529Z"/><path fill="#7E703A" d="M388.322 373.39C389.563 374.601 388.49 377.371 388.245 379.097C386.773 377.611 387.954 375.385 388.322 373.39Z"/></svg>